<svg width="50" height="50" viewBox="0 0 50 50" fill="none" xmlns="http://www.w3.org/2000/svg">
<g clip-path="url(#clip0_5_27)">
<path d="M43.5 0.625H6.5C3.25533 0.625 0.625 3.25533 0.625 6.5V43.5C0.625 46.7447 3.25533 49.375 6.5 49.375H43.5C46.7447 49.375 49.375 46.7447 49.375 43.5V6.5C49.375 3.25533 46.7447 0.625 43.5 0.625Z" fill="#021B75"/>
<path d="M33.537 18.5472L30.8185 19.2896C30.444 18.5516 29.975 17.9414 29.4115 17.4592C28.8552 16.975 28.2372 16.6098 27.5575 16.3635C26.883 16.1079 26.1742 15.9716 25.4312 15.9546C24.6885 15.9376 23.9444 16.0308 23.1989 16.2344C21.8396 16.6056 20.702 17.2854 19.7861 18.2737C18.8774 19.26 18.2805 20.5107 17.9953 22.0257C17.7174 23.5387 17.8439 25.2673 18.3747 27.2111C18.9056 29.1551 19.6752 30.708 20.6835 31.8698C21.6992 33.0295 22.8489 33.8033 24.1327 34.1908C25.4237 34.5765 26.749 34.5836 28.1085 34.2126C28.8537 34.0088 29.542 33.711 30.1732 33.3188C30.8042 32.9265 31.3462 32.4525 31.7992 31.897C32.2575 31.3321 32.6032 30.6998 32.8362 30C33.0745 29.2911 33.1682 28.5273 33.1175 27.7086L35.836 26.9663C35.9447 28.1696 35.8525 29.298 35.5592 30.352C35.2657 31.4058 34.804 32.3606 34.1737 33.2158C33.5415 34.0638 32.7695 34.7891 31.8582 35.3913C30.954 35.9916 29.9357 36.4463 28.803 36.7558C26.8882 37.2785 25.0577 37.2758 23.3113 36.7476C21.565 36.2193 20.0288 35.2096 18.7028 33.7183C17.3767 32.2271 16.3904 30.2976 15.7438 27.9296C15.0972 25.5618 14.9659 23.3987 15.35 21.4405C15.734 19.4823 16.5438 17.8319 17.7792 16.4893C19.0146 15.1467 20.5897 14.214 22.5044 13.6912C23.6372 13.3818 24.7454 13.2559 25.8292 13.3133C26.9202 13.3688 27.9545 13.6046 28.932 14.0209C29.9075 14.4299 30.7895 15.0137 31.5777 15.7722C32.364 16.5234 33.017 17.4484 33.537 18.5472Z" fill="#C6AC23"/>
<path d="M33.537 18.5472L33.8005 19.5119L34.9513 19.1977L34.441 18.1195L33.537 18.5472ZM30.8185 19.2896L29.9265 19.7419L30.2953 20.4691L31.0818 20.2543L30.8185 19.2896ZM29.4115 17.4592L28.755 18.2135L28.7583 18.2163L28.7615 18.2191L29.4115 17.4592ZM27.5575 16.3635L27.203 17.2986L27.2098 17.3012L27.2168 17.3037L27.5575 16.3635ZM25.4313 15.9546L25.4085 16.9543L25.4313 15.9546ZM19.7861 18.2736L19.0526 17.5939L19.0506 17.5961L19.7861 18.2736ZM17.9953 22.0257L17.0126 21.8406L17.0122 21.8428L17.0118 21.845L17.9953 22.0257ZM20.6835 31.8698L19.9283 32.5253L19.9298 32.5268L19.9312 32.5285L20.6835 31.8698ZM24.1327 34.1908L23.8437 35.148L23.8466 35.149L24.1327 34.1908ZM30.1733 33.3188L29.6453 32.4695L30.1733 33.3188ZM31.7993 31.897L32.5743 32.5288L32.5758 32.527L31.7993 31.897ZM32.8363 30L31.8883 29.6815L31.8873 29.684L32.8363 30ZM33.1175 27.7085L32.854 26.744L32.069 26.9583L32.1193 27.7705L33.1175 27.7085ZM35.836 26.9663L36.832 26.8763L36.7245 25.687L35.5728 26.0015L35.836 26.9663ZM35.5593 30.352L34.5958 30.0838L35.5593 30.352ZM34.1738 33.2158L34.9755 33.8135L34.977 33.8113L34.9788 33.809L34.1738 33.2158ZM31.8583 35.3913L31.307 34.557L31.305 34.5583L31.8583 35.3913ZM23.3113 36.7475L23.0218 37.7048L23.3113 36.7475ZM18.7028 33.7183L19.4501 33.0538L18.7028 33.7183ZM15.35 21.4405L14.3687 21.248L15.35 21.4405ZM25.8293 13.3133L25.7763 14.3119L25.7785 14.312L25.8293 13.3133ZM28.932 14.0209L28.5403 14.941L28.5428 14.9421L28.5453 14.9431L28.932 14.0209ZM31.5778 15.7722L30.8843 16.4927L30.8855 16.494L30.887 16.4952L31.5778 15.7722ZM33.2735 17.5825L30.555 18.3249L31.0818 20.2543L33.8005 19.5119L33.2735 17.5825ZM31.7103 18.8373C31.2833 17.9954 30.7363 17.2765 30.0615 16.6994L28.7615 18.2191C29.214 18.6063 29.605 19.1077 29.9265 19.7419L31.7103 18.8373ZM30.068 16.7049C29.4208 16.1415 28.696 15.7124 27.898 15.4233L27.2168 17.3037C27.7783 17.5072 28.2898 17.8086 28.755 18.2135L30.068 16.7049ZM27.9118 15.4284C27.128 15.1314 26.307 14.9744 25.4543 14.9548L25.4085 16.9543C26.0415 16.9688 26.6378 17.0844 27.203 17.2986L27.9118 15.4284ZM25.4543 14.9548C24.611 14.9355 23.7705 15.0417 22.9355 15.2697L23.4624 17.199C24.1183 17.0199 24.7661 16.9396 25.4085 16.9543L25.4543 14.9548ZM22.9355 15.2697C21.4046 15.6877 20.1015 16.4621 19.0526 17.5939L20.5195 18.9534C21.3025 18.1085 22.2747 17.5234 23.4624 17.199L22.9355 15.2697ZM19.0506 17.5961C17.997 18.7398 17.3272 20.1697 17.0126 21.8406L18.9781 22.2107C19.2339 20.8516 19.7579 19.7801 20.5216 18.9512L19.0506 17.5961ZM17.0118 21.845C16.6997 23.5439 16.8514 25.4288 17.4101 27.4745L19.3394 26.9478C18.8363 25.1055 18.7351 23.5334 18.9789 22.2063L17.0118 21.845ZM17.4101 27.4745C17.9687 29.5203 18.7961 31.2208 19.9283 32.5253L21.4388 31.2143C20.5543 30.1953 19.8425 28.79 19.3394 26.9478L17.4101 27.4745ZM19.9312 32.5285C21.0514 33.8078 22.355 34.6988 23.8437 35.148L24.4218 33.2335C23.3428 32.9078 22.3469 32.2513 21.4359 31.211L19.9312 32.5285ZM23.8466 35.149C25.325 35.5905 26.841 35.5953 28.3718 35.177L27.845 33.2478C26.6573 33.572 25.5228 33.5623 24.4189 33.2325L23.8466 35.149ZM28.3718 35.177C29.2068 34.949 29.9845 34.6133 30.701 34.168L29.6453 32.4695C29.0995 32.8085 28.501 33.0685 27.845 33.2478L28.3718 35.177ZM30.701 34.168C31.4225 33.7198 32.049 33.1733 32.5743 32.5288L31.0243 31.265C30.6435 31.732 30.186 32.1333 29.6453 32.4695L30.701 34.168ZM32.5758 32.527C33.111 31.8673 33.5145 31.1283 33.785 30.316L31.8873 29.684C31.6918 30.2713 31.404 30.7968 31.0228 31.267L32.5758 32.527ZM33.784 30.3185C34.0673 29.4758 34.1735 28.5818 34.1155 27.6468L32.1193 27.7705C32.163 28.4728 32.0815 29.106 31.8883 29.6815L33.784 30.3185ZM33.381 28.6733L36.0995 27.9308L35.5728 26.0015L32.854 26.744L33.381 28.6733ZM34.8403 27.0563C34.939 28.1515 34.8535 29.1578 34.5958 30.0838L36.5225 30.62C36.8515 29.4383 36.9505 28.1873 36.832 26.8763L34.8403 27.0563ZM34.5958 30.0838C34.334 31.024 33.9248 31.868 33.3688 32.6225L34.9788 33.809C35.6833 32.853 36.1975 31.7875 36.5225 30.62L34.5958 30.0838ZM33.372 32.618C32.8113 33.3703 32.125 34.0163 31.307 34.557L32.4095 36.2255C33.4143 35.5615 34.2718 34.7573 34.9755 33.8135L33.372 32.618ZM31.305 34.5583C30.497 35.0948 29.5778 35.5075 28.5395 35.791L29.0663 37.7203C30.2938 37.3853 31.4113 36.8883 32.4113 36.2243L31.305 34.5583ZM28.5395 35.791C26.7895 36.2688 25.1515 36.2595 23.6009 35.7903L23.0218 37.7048C24.9638 38.2923 26.9868 38.2883 29.0663 37.7203L28.5395 35.791ZM23.6009 35.7903C22.0476 35.3205 20.6654 34.4203 19.4501 33.0538L17.9555 34.3828C19.3923 35.9985 21.0824 37.118 23.0218 37.7048L23.6009 35.7903ZM19.4501 33.0538C18.2473 31.701 17.3237 29.9188 16.7085 27.666L14.7791 28.193C15.4572 30.676 16.5062 32.7528 17.9555 34.3828L19.4501 33.0538ZM16.7085 27.666C16.0933 25.4133 15.9829 23.4092 16.3313 21.6329L14.3687 21.248C13.9489 23.3883 14.1011 25.71 14.7791 28.193L16.7085 27.666ZM16.3313 21.6329C16.6833 19.8383 17.4162 18.3606 18.5151 17.1664L17.0434 15.8122C15.6714 17.3031 14.7848 19.1263 14.3687 21.248L16.3313 21.6329ZM18.5151 17.1664C19.6121 15.9743 21.018 15.1337 22.7679 14.6558L22.241 12.7264C20.1615 13.2943 18.4172 14.3191 17.0434 15.8122L18.5151 17.1664ZM22.7679 14.6558C23.8061 14.3723 24.8075 14.2605 25.7763 14.3119L25.882 12.3147C24.6834 12.2512 23.4683 12.3913 22.241 12.7264L22.7679 14.6558ZM25.7785 14.312C26.7555 14.3617 27.674 14.572 28.5403 14.941L29.3238 13.1009C28.235 12.6372 27.085 12.3758 25.88 12.3146L25.7785 14.312ZM28.5453 14.9431C29.4033 15.3028 30.182 15.8168 30.8843 16.4927L32.271 15.0516C31.397 14.2105 30.4118 13.557 29.3188 13.0987L28.5453 14.9431ZM30.887 16.4952C31.5748 17.1525 32.1595 17.9738 32.6333 18.9749L34.441 18.1195C33.8748 16.923 33.153 15.8943 32.2685 15.0491L30.887 16.4952Z" fill="#C6AC23"/>
<path d="M35.5092 32.5185C35.4622 32.5428 35.3962 32.623 35.3655 32.6938C35.3435 32.7423 35.3407 32.83 35.3362 33.304L35.332 33.8603L34.353 33.864L33.3755 33.8695L33.3227 33.9143C33.1177 34.0935 33.1747 34.4668 33.418 34.532C33.4737 34.545 33.824 34.5508 34.5875 34.547C35.7772 34.5413 35.7172 34.547 35.7977 34.435C35.8637 34.3453 35.8755 34.2725 35.8755 33.959V33.6643L36.4865 34.4443L37.099 35.2225L36.4865 36.0008L35.8755 36.7808V36.4858C35.8755 36.1108 35.8535 36.0305 35.726 35.9485C35.6733 35.9148 35.6147 35.913 34.1697 35.913H32.6677L32.6635 35.3568C32.659 34.823 32.6575 34.7988 32.6267 34.7243C32.5652 34.5805 32.4142 34.5115 32.2897 34.5693C32.2282 34.5993 30.3115 37.042 30.2765 37.1353C30.2412 37.2305 30.2412 37.32 30.2765 37.4153C30.2955 37.4655 30.6135 37.8835 31.2757 38.7233C32.322 40.052 32.2882 40.0148 32.4275 39.9943C32.5022 39.9848 32.5842 39.9103 32.6297 39.8113C32.6575 39.7515 32.659 39.7088 32.6635 39.1935L32.6692 38.6375L33.6467 38.6338L34.624 38.6283L34.6767 38.5833C34.882 38.4043 34.8247 38.031 34.5815 37.9658C34.526 37.9525 34.1757 37.947 33.4122 37.9508C32.2237 37.9563 32.281 37.9508 32.2032 38.0628C32.1375 38.1523 32.1315 38.1895 32.1242 38.5125L32.1167 38.824L31.5042 38.046L30.8932 37.266L31.5087 36.482L32.1242 35.6983V36.0025C32.1242 36.3888 32.1447 36.4653 32.2737 36.5493C32.3265 36.5828 32.385 36.5848 33.83 36.5848H35.332L35.3362 37.139C35.3407 37.6745 35.3422 37.6988 35.373 37.7735C35.4345 37.9173 35.5855 37.9863 35.71 37.9283C35.7715 37.8985 37.6883 35.4558 37.7232 35.3625C37.757 35.271 37.7585 35.187 37.7293 35.0955C37.697 35.0005 35.8052 32.5838 35.7217 32.5333C35.6587 32.496 35.5677 32.4885 35.5092 32.5185Z" fill="#F5F5F5"/>
</g>
<defs>
<clipPath id="clip0_5_27">
<rect width="50" height="50" fill="white"/>
</clipPath>
</defs>
</svg>
